PathFileType	4	(X/Y/Z)	./resultDataOpenSim/trcMotMarkerGrf/sub09/qtm-01-06.trc
DataRate	CameraRate	NumFrames	NumMarkers	Units	OrigDataRate	OrigDataStartFrame	OrigNumFrames
250.000000	250.000000	8	24	m	250.000000	61	482
Frame#	Time	L.Toe.Tip			R.Toe.Tip			L.Ankle.Lat			R.Ankle.Lat			L.Ankle.Med			R.Ankle.Med			L.Heel			R.Heel			L.Knee.Lat			R.Knee.Lat			L.Knee.Med			R.Knee.Med			L.Thigh.Upper			R.Thigh.Upper			L.ASIS			R.ASIS			V.Sacral			L.Acromium			R.Acromium			C7			L.Elbow			R.Elbow			L.Wrist.Lat			R.Wrist.Lat
		X1	Y1	Z1	X2	Y2	Z2	X3	Y3	Z3	X4	Y4	Z4	X5	Y5	Z5	X6	Y6	Z6	X7	Y7	Z7	X8	Y8	Z8	X9	Y9	Z9	X10	Y10	Z10	X11	Y11	Z11	X12	Y12	Z12	X13	Y13	Z13	X14	Y14	Z14	X15	Y15	Z15	X16	Y16	Z16	X17	Y17	Z17	X18	Y18	Z18	X19	Y19	Z19	X20	Y20	Z20	X21	Y21	Z21	X22	Y22	Z22	X23	Y23	Z23	X24	Y24	Z24

61	0.24	-1.3355024	0.096316123	-0.064831655	-0.61664707	0.039617955	0.074002531	-1.3562615	0.25192037	-0.10193422	-0.76643137	0.05254555	0.10402306	-1.3310437	0.23270702	-0.0087813645	-0.75465001	0.093016409	0.013309843	-1.4165236	0.29760207	-0.051747492	-0.8316935	0.030962324	0.05189553	-0.98231193	0.42274426	-0.1296004	-0.73165039	0.50652874	0.16858354	-0.96792235	0.40950662	-0.0042642326	-0.74619962	0.49449508	0.041675652	-0.96711754	0.83089868	-0.14612351	-0.92663615	0.86197394	0.22573005	-0.87607122	0.91855456	-0.096305506	-0.85692681	0.94586838	0.14150471	-1.0362126	0.98856448	0.030536573	-0.85691018	1.3820388	-0.13410411	-0.86983246	1.3907492	0.1940202	-0.93023803	1.4403243	0.034570842	-0.98213939	1.0307476	-0.20112893	-1.014526	1.0574621	0.28622519	-0.79232985	0.8397703	-0.19387565	-0.87910694	0.81775173	0.29523558
62	0.244	-1.320956	0.098238158	-0.065786437	-0.61670419	0.039675822	0.07396068	-1.3426149	0.25366165	-0.10169336	-0.76542451	0.052572964	0.10307084	-1.3176557	0.23412894	-0.0084113966	-0.75450744	0.093051429	0.013345541	-1.403466	0.29894631	-0.051580786	-0.83195342	0.031113951	0.051726186	-0.96894904	0.42381093	-0.12868959	-0.72887645	0.50626634	0.16878743	-0.95482624	0.41032254	-0.0032074117	-0.74383107	0.49438327	0.042117582	-0.9608389	0.83197145	-0.14582915	-0.92101174	0.8638896	0.22597058	-0.87028978	0.92004274	-0.096124316	-0.85078245	0.94745355	0.14153717	-1.030502	0.99020237	0.030655191	-0.85100979	1.3834512	-0.13402958	-0.86340039	1.3921157	0.1941483	-0.9236293	1.4421124	0.035370143	-0.97615822	1.0322666	-0.20058234	-1.0075387	1.0585431	0.28670926	-0.78852182	0.83963766	-0.19392872	-0.87100612	0.81923552	0.29496843
63	0.248	-1.3062022	0.099865189	-0.066554124	-0.6167703	0.039740244	0.073920036	-1.3287988	0.25506099	-0.10148668	-0.76436011	0.05262675	0.10207082	-1.3036422	0.23557086	-0.0083720308	-0.7543365	0.09310407	0.013390494	-1.3903467	0.29991255	-0.051478084	-0.83228895	0.031333656	0.051474042	-0.9556507	0.42506369	-0.1277677	-0.72622418	0.50601225	0.16899215	-0.94147536	0.41129415	-0.0021427882	-0.74151434	0.49427345	0.042546583	-0.95462012	0.83315936	-0.14556732	-0.91541357	0.86587236	0.22618446	-0.86447652	0.92163851	-0.095920134	-0.84468565	0.94907945	0.14155205	-1.0247131	0.99190077	0.030890808	-0.84516697	1.3849528	-0.13396724	-0.85702449	1.3935457	0.19426047	-0.9174178	1.4436872	0.035644174	-0.97042462	1.0339012	-0.20007383	-1.000591	1.0596903	0.28716707	-0.7847746	0.83960718	-0.19399896	-0.86293277	0.82079138	0.29470226
64	0.252	-1.291263	0.10120776	-0.067088457	-0.61685217	0.039799352	0.073899018	-1.3148446	0.25615931	-0.1013037	-0.76384934	0.052679641	0.10158108	-1.2895701	0.23690432	-0.0084407898	-0.75416401	0.093171143	0.013452936	-1.3771458	0.30052543	-0.051405809	-0.83267423	0.03159956	0.051165674	-0.94237756	0.42647636	-0.12686255	-0.72367881	0.50580276	0.16920082	-0.92804029	0.41248111	-0.0010345491	-0.73916646	0.49417561	0.042879127	-0.9484354	0.83447667	-0.14532543	-0.90981838	0.86789609	0.22637699	-0.85874123	0.92332302	-0.095710921	-0.83865765	0.95072029	0.14156667	-1.0185943	0.99368036	0.031517169	-0.83938907	1.3865333	-0.13390274	-0.85069502	1.3950443	0.19435636	-0.91161374	1.4450567	0.035382256	-0.96487328	1.0356453	-0.19958412	-0.99366714	1.0608908	0.28758673	-0.7811114	0.83968233	-0.19408009	-0.85487285	0.82243601	0.29443562
65	0.256	-1.2760641	0.10230104	-0.067415532	-0.61696597	0.039856846	0.073930031	-1.3007825	0.25698143	-0.10113223	-0.76411018	0.052714019	0.10179603	-1.2757946	0.23795	-0.0083440876	-0.75405877	0.093239454	0.013544187	-1.3638572	0.30079805	-0.051344401	-0.83307512	0.031882108	0.05083649	-0.92907404	0.42802461	-0.1259861	-0.72123774	0.50564845	0.16941509	-0.9146656	0.41389331	0.0001245516	-0.73679924	0.49409771	0.043124646	-0.94225055	0.83592051	-0.14508396	-0.90427765	0.8699246	0.22655723	-0.85316303	0.92507248	-0.095513521	-0.83270079	0.95237035	0.14159607	-1.011911	0.99553142	0.032744919	-0.83368172	1.3881795	-0.13383685	-0.84441386	1.3966136	0.19444175	-0.90598771	1.4463906	0.034909706	-0.95936034	1.0374706	-0.19907351	-0.9867444	1.0621403	0.28795412	-0.77755845	0.83986319	-0.19417142	-0.84681789	0.82419296	0.29417846
66	0.26	-1.2604947	0.10320535	-0.067621745	-0.61712818	0.039924305	0.074041853	-1.2866333	0.25752462	-0.10096889	-0.76479125	0.052749949	0.10238138	-1.2617995	0.23867757	-0.0081509746	-0.75405933	0.093302512	0.013670838	-1.3504505	0.30072466	-0.051329981	-0.83345511	0.032150723	0.050524088	-0.91571858	0.4296964	-0.12512277	-0.71887729	0.50552776	0.1696277	-0.90140689	0.41550493	0.0013225064	-0.73450975	0.49404944	0.043357492	-0.93603641	0.83747609	-0.1448262	-0.89895032	0.87191793	0.22674097	-0.84771928	0.9268784	-0.095325621	-0.82681567	0.95403334	0.14164828	-1.0048496	0.99738558	0.034303607	-0.82804291	1.3898868	-0.13378315	-0.83819211	1.3982501	0.19452754	-0.90028538	1.4478594	0.034582241	-0.95382754	1.0393502	-0.19852901	-0.97979764	1.0634426	0.28825452	-0.77411406	0.84015074	-0.19426843	-0.83880571	0.8260664	0.29394213
67	0.264	-1.2444985	0.10395854	-0.067767723	-0.61733117	0.040005956	0.074227684	-1.2723955	0.25777312	-0.1008113	-0.76541413	0.05281855	0.10290153	-1.2469186	0.23918363	-0.0081023785	-0.75412735	0.093370053	0.013828986	-1.3369035	0.30029309	-0.051403709	-0.83377961	0.032376987	0.050263884	-0.9023001	0.43150275	-0.12425735	-0.71657389	0.50541387	0.16983717	-0.88829923	0.41730637	0.0025319948	-0.7323663	0.49403748	0.043633771	-0.92978726	0.83912793	-0.14453563	-0.89402021	0.8738416	0.22694709	-0.84233099	0.92874763	-0.095127561	-0.8210177	0.95570189	0.14172769	-0.99814874	0.99919107	0.035332393	-0.82246452	1.3916548	-0.13375265	-0.83203425	1.399951	0.1946213	-0.89441611	1.4495041	0.034521715	-0.94829604	1.0412748	-0.19796046	-0.97280326	1.0647969	0.28847469	-0.77073422	0.84054817	-0.19435149	-0.83094112	0.82802258	0.29373151
68	0.268	-1.2280981	0.10454601	-0.067843806	-0.61753387	0.040093372	0.074434143	-1.2580601	0.25772014	-0.10065335	-0.76579489	0.052923071	0.10320041	-1.2313586	0.23951544	-0.0082068709	-0.75419962	0.093456841	0.014008984	-1.3232603	0.29949946	-0.051552448	-0.83402419	0.032537768	0.050080416	-0.88877915	0.43347306	-0.12340404	-0.71441923	0.50531739	0.17008986	-0.8753966	0.41932923	0.0037122775	-0.73032368	0.4940634	0.043935286	-0.9235216	0.84087004	-0.14420552	-0.88944578	0.87567969	0.22717976	-0.83693703	0.9306874	-0.094900722	-0.81532394	0.95735422	0.14184378	-0.99241915	1.0009737	0.035179145	-0.81693702	1.393482	-0.1337436	-0.82592477	1.4017129	0.19471923	-0.88843764	1.4512646	0.034645092	-0.94280199	1.0432541	-0.19738214	-0.96574936	1.0661948	0.28861239	-0.76736921	0.84105511	-0.19439768	-0.82331809	0.8300145	0.29354442
